<?xml version="1.0" standalone="no"?>
<!DOCTYPE svg PUBLIC "-//W3C//DTD SVG 20010904//EN"
 "http://www.w3.org/TR/2001/REC-SVG-20010904/DTD/svg10.dtd">
<svg xmlns="http://www.w3.org/2000/svg" viewBox="0 -200 4500 4300" width="60pt" height="60pt" preserveAspectRatio="xMidYMid meet">
  <g transform="translate(0.000000,4300.000000) scale(0.110000,-0.10000)" fill="#000000" stroke="none">
<path d="M23088 36346 c-22 -33 -26 -36 -75 -36 l-53 0 0 -9655 0 -9655 40 0
c33 0 40 -3 40 -20 0 -19 7 -20 253 -20 138 0 1899 -9 3911 -20 2012 -11 3661
-19 3663 -17 6 6 11 395 48 3692 19 1667 36 3123 37 3237 l3 208 -42 6 c-42 6
-43 7 -43 46 l0 41 -362 -7 c-200 -3 -672 -9 -1050 -12 l-688 -7 0 -28 c0 -27
-3 -29 -40 -29 l-40 0 0 -2481 0 -2481 -1727 6 c-951 4 -1741 10 -1757 13
l-28 5 7 5072 c4 2789 11 5781 14 6648 l6 1577 1711 -1185 1711 -1185 7 -997
c3 -548 9 -1250 12 -1559 l7 -563 28 0 c27 0 29 -3 29 -40 l0 -40 1060 0 1060
0 0 40 0 40 40 0 40 0 0 68 c0 37 -7 392 -17 789 -9 398 -14 725 -11 728 3 3
410 -263 904 -591 495 -328 949 -630 1011 -670 l112 -73 21 34 c17 27 28 35
51 35 l29 0 0 1140 0 1140 -30 0 c-35 0 -36 4 -10 38 11 14 17 29 13 32 -8 7
-9796 6722 -9845 6754 l-27 18 -23 -36z m4921 -3526 l4831 -3315 0 -1033 c0
-824 -3 -1032 -12 -1026 -7 5 -308 204 -668 443 -360 239 -800 530 -977 647
l-322 213 -20 -35 c-19 -32 -23 -34 -76 -34 l-55 0 0 -107 c0 -87 14 -729 32
-1451 l3 -102 -965 2 -965 3 -11 1530 c-6 842 -11 1531 -12 1533 -1 1 -13 2
-27 2 -30 0 -31 4 -4 38 19 25 20 27 2 40 -109 80 -3614 2502 -3621 2502 -6 0
-19 -13 -29 -30 -13 -23 -24 -30 -49 -30 l-31 0 -6 -4017 c-4 -2210 -10 -5268
-14 -6795 l-6 -2778 41 0 c40 0 42 -2 42 -29 l0 -28 673 -7 c369 -3 1197 -9
1840 -12 l1167 -7 0 42 0 41 45 0 45 0 0 2469 0 2469 293 6 c160 3 595 9 966
12 l673 6 -6 -268 c-4 -148 -23 -1698 -42 -3444 -20 -1746 -38 -3177 -40
-3179 -4 -4 -6139 26 -6981 35 l-603 6 0 9520 0 9520 29 -19 c15 -10 2202
-1510 4860 -3333z"/>
<path d="M17339 33122 l-4654 -3149 -3 -1257 c-1 -691 1 -1256 5 -1255 5 0
478 319 1053 708 l1045 708 3 -5939 2 -5938 3600 0 3600 0 0 3535 0 3535
-1040 0 -1040 0 0 -2490 0 -2490 -1515 0 -1515 0 0 5603 0 5602 1513 1023
1512 1022 3 -2720 2 -2720 1038 0 1039 0 6 4682 c3 2576 4 4684 3 4685 -2 2
-2097 -1414 -4657 -3145z"/>
</g>
</svg>